<?xml version="1.0" standalone="no"?>
<!DOCTYPE svg PUBLIC "-//W3C//DTD SVG 20010904//EN"
 "http://www.w3.org/TR/2001/REC-SVG-20010904/DTD/svg10.dtd">
<svg version="1.0" xmlns="http://www.w3.org/2000/svg"
 width="233.000000pt" height="283.000000pt" viewBox="0 0 233.000000 283.000000"
 preserveAspectRatio="xMidYMid meet">
<metadata>
Created by potrace 1.10, written by Peter Selinger 2001-2011
</metadata>
<g transform="translate(0.000000,283.000000) scale(0.100000,-0.100000)"
fill="#000000" stroke="none">
<path d="M298 2623 c-15 -18 -5 -47 17 -51 25 -4 420 -396 440 -436 10 -19 15
-59 15 -113 l0 -83 -83 0 -82 0 -145 -147 -145 -148 5 -395 5 -395 28 -3 c19
-2 29 2 34 15 3 10 30 44 60 75 l53 57 0 132 0 133 42 43 c41 42 44 43 109 43
72 0 111 -14 149 -55 17 -18 34 -25 62 -25 21 0 38 -1 38 -3 0 -2 -101 -104
-225 -227 l-225 -225 2 -325 3 -325 24 -3 c13 -2 28 1 34 7 7 7 64 11 152 11
l140 0 213 213 212 212 0 118 0 117 -75 0 -75 0 0 59 c0 43 4 60 15 65 8 3 15
15 15 26 0 20 5 20 230 20 l230 0 0 -86 0 -86 -61 4 c-50 2 -64 0 -73 -14 -8
-14 -8 -23 2 -38 9 -14 12 -94 12 -300 l0 -280 -92 0 c-128 1 -128 1 -128 138
0 90 3 111 16 116 10 4 14 15 12 33 -2 22 -9 29 -30 31 -16 2 -28 -1 -29 -7 0
-6 -1 -89 -1 -183 -1 -172 -1 -173 22 -176 12 -2 27 1 33 7 7 7 55 11 119 11
l108 0 0 298 c1 231 4 301 14 315 9 12 27 17 60 17 l46 0 0 115 0 115 -274 0
c-252 0 -274 -1 -278 -17 -2 -10 -2 -62 0 -115 l4 -98 74 0 74 0 0 -93 0 -92
-208 -208 -207 -207 -126 0 c-79 0 -135 5 -152 13 l-27 12 0 263 c0 257 0 262
20 262 25 0 37 27 22 50 -9 14 4 31 77 104 81 81 89 86 129 86 l42 0 0 -335
c0 -242 -3 -341 -12 -354 -9 -15 -9 -23 2 -36 21 -25 54 -15 58 18 2 15 -1 27
-7 27 -8 0 -11 100 -11 319 0 310 1 319 20 324 22 6 27 36 8 55 -7 7 -34 12
-60 12 -26 0 -48 2 -48 3 0 2 52 55 116 118 98 97 120 114 147 114 27 0 32 4
35 26 2 17 47 69 142 164 l140 140 0 80 -1 80 -59 63 c-47 51 -63 62 -80 57
-35 -11 -19 -65 20 -65 9 0 33 -17 53 -38 34 -35 37 -42 37 -98 l0 -59 -145
-145 -145 -145 -221 220 c-121 121 -225 228 -231 239 -8 15 -3 25 28 57 31 32
42 37 66 32 24 -5 30 -2 35 16 5 21 7 21 302 21 285 0 297 -1 309 -20 7 -11
20 -20 30 -20 22 0 302 -280 302 -302 0 -9 5 -20 11 -23 7 -5 10 -87 8 -248
-1 -205 1 -243 13 -251 37 -23 66 26 33 54 -23 19 -20 70 4 70 10 0 24 -7 31
-15 17 -21 54 -15 58 8 6 33 -16 47 -64 40 l-44 -6 0 166 c0 100 4 168 10 172
6 3 10 12 10 19 0 7 -84 97 -187 199 l-186 187 -249 0 -249 0 5 83 c2 45 6 95
8 112 2 22 -2 32 -21 41 -20 10 -431 412 -431 421 0 2 28 3 63 3 l63 0 155
-155 c85 -86 156 -166 159 -178 5 -16 13 -22 35 -22 27 0 30 3 30 30 0 23 -5
31 -21 33 -11 2 -85 68 -164 147 l-145 145 269 0 268 0 -3 -137 -4 -138 30 0
c25 0 30 4 33 28 2 18 -2 29 -12 33 -13 5 -16 25 -16 110 l0 104 115 0 115 0
0 -160 c0 -104 -4 -167 -12 -179 -17 -28 -3 -53 29 -49 21 2 29 9 31 27 2 13
-1 28 -7 34 -7 7 -11 69 -11 169 l0 158 89 0 c70 0 90 -3 95 -15 3 -8 18 -15
34 -15 19 0 39 -12 65 -38 l38 -39 -81 -76 c-88 -83 -99 -112 -45 -112 25 0
31 4 33 26 2 15 26 48 60 82 l57 57 105 -105 105 -105 -144 -144 c-150 -151
-168 -181 -106 -181 26 0 30 4 33 31 2 24 29 56 122 149 l119 119 25 -23 c19
-18 24 -30 19 -52 -4 -21 -1 -30 11 -35 14 -5 16 -28 16 -168 l0 -162 -75 -74
c-83 -83 -95 -115 -40 -115 26 0 30 4 33 31 2 20 17 44 43 70 l39 38 0 -227 0
-227 -45 0 c-25 0 -54 6 -65 12 -26 17 -55 -1 -55 -33 0 -18 6 -25 24 -27 13
-2 28 1 34 7 6 6 33 11 59 11 l48 0 0 -210 c0 -116 -2 -210 -3 -210 -2 0 -50
46 -105 103 -100 100 -102 103 -102 150 0 26 2 47 5 47 11 0 101 -104 105
-124 4 -15 14 -21 35 -21 27 0 30 3 30 30 0 22 -5 31 -20 33 -11 2 -50 34 -87
70 l-68 66 0 138 0 138 48 0 c26 0 53 -5 59 -11 6 -6 21 -9 34 -7 18 2 25 10
27 31 4 32 -21 46 -49 29 -10 -7 -41 -12 -69 -12 l-50 0 0 74 c0 58 3 75 16
80 24 9 14 60 -12 64 -12 2 -33 15 -47 30 l-27 28 78 76 c46 46 87 78 102 80
20 2 25 9 25 33 0 56 -29 42 -131 -65 l-98 -101 -106 106 -106 106 95 94 c71
69 104 94 126 97 26 3 30 7 30 33 0 60 -33 44 -149 -75 -60 -60 -111 -110
-112 -110 -2 0 -4 90 -4 199 0 168 2 200 15 205 20 7 19 55 -1 63 -9 3 -24 2
-32 -4 -13 -8 -15 -41 -13 -234 l2 -224 -63 63 c-58 56 -67 62 -106 62 l-42 0
0 144 c0 119 3 145 15 150 20 7 19 55 -1 63 -9 3 -24 2 -32 -4 -14 -8 -16 -34
-13 -181 l3 -172 -39 0 c-38 0 -47 8 -199 160 -87 88 -161 171 -164 183 -7 26
-48 30 -63 6 -14 -22 -2 -49 20 -49 10 0 86 -67 168 -150 l150 -150 -73 0
c-40 0 -81 5 -92 12 -26 17 -55 -1 -55 -33 0 -18 6 -25 24 -27 13 -2 28 1 34
7 7 7 77 11 197 11 l185 0 230 -230 230 -230 3 -333 3 -332 104 -105 c57 -58
105 -114 107 -125 2 -14 11 -20 31 -20 l28 0 0 704 0 705 -223 223 -223 224
-643 2 c-491 1 -646 -1 -654 -10z m433 -1097 c119 -116 217 -214 217 -218 1
-5 -21 -8 -50 -8 -43 0 -57 5 -80 27 -15 15 -28 32 -28 39 0 6 -7 17 -16 25
-12 10 -20 10 -35 1 -10 -7 -54 -12 -96 -12 l-77 0 -48 -47 -48 -47 0 -135 0
-135 -47 -48 c-26 -26 -53 -48 -60 -48 -10 0 -13 69 -13 339 0 299 2 340 16
345 10 4 14 15 12 31 -2 18 9 36 41 69 37 37 49 44 70 40 16 -4 113 -92 242
-218z"/>
<path d="M462 1618 c-15 -15 -16 -45 -2 -53 6 -3 10 -48 10 -101 0 -83 2 -94
18 -94 16 0 142 114 142 129 0 14 -126 131 -141 131 -8 0 -20 -5 -27 -12z m88
-83 l34 -35 -42 -43 -42 -42 0 78 c0 42 4 77 8 77 4 0 23 -16 42 -35z"/>
<path d="M768 1809 c-5 -3 -8 -17 -6 -30 4 -29 54 -41 64 -15 5 13 26 16 118
16 l112 0 37 -38 c30 -31 37 -45 37 -78 0 -36 -7 -46 -68 -107 l-67 -67 -137
138 c-75 75 -138 146 -140 157 -2 14 -12 21 -36 23 -32 3 -33 2 -30 -30 2 -24
8 -34 24 -36 11 -2 85 -68 164 -147 80 -80 149 -145 155 -145 6 0 45 35 88 78
l77 77 0 61 c0 57 -2 62 -42 101 l-43 41 -148 4 c-82 2 -153 0 -159 -3z"/>
</g>
</svg>
