<?xml version="1.0" standalone="no"?>
<!DOCTYPE svg PUBLIC "-//W3C//DTD SVG 20010904//EN"
 "http://www.w3.org/TR/2001/REC-SVG-20010904/DTD/svg10.dtd">
<svg version="1.0" xmlns="http://www.w3.org/2000/svg"
 width="198.000000pt" height="183.000000pt" viewBox="0 0 198.000000 183.000000"
 preserveAspectRatio="xMidYMid meet">
<metadata>
Created by potrace 1.10, written by Peter Selinger 2001-2011
</metadata>
<g transform="translate(0.000000,183.000000) scale(0.100000,-0.100000)"
fill="#000000" stroke="none">
<path d="M925 1553 c-16 -8 -38 -24 -49 -35 -10 -11 -25 -17 -33 -14 -17 7
-83 -22 -83 -35 0 -5 -6 -9 -13 -9 -8 0 -19 -10 -25 -22 -7 -13 -17 -30 -24
-39 -9 -13 -7 -21 8 -37 10 -11 32 -51 48 -89 16 -37 44 -85 62 -105 34 -38
37 -71 7 -82 -14 -6 -97 54 -107 77 -3 8 -9 6 -17 -7 -6 -10 -20 -27 -30 -37
-11 -11 -19 -22 -19 -25 0 -10 -54 -49 -64 -46 -4 2 -16 -4 -25 -12 -14 -13
-19 -12 -44 10 -23 20 -27 27 -17 39 6 8 9 19 6 24 -4 5 2 24 13 42 l20 32
-22 24 c-12 12 -27 23 -33 23 -5 0 -19 8 -30 18 -10 9 -28 17 -39 17 -16 0
-20 6 -18 33 l1 34 -24 -23 c-25 -23 -32 -35 -14 -24 6 3 10 2 10 -3 0 -5 29
-34 65 -63 60 -50 80 -79 55 -79 -6 0 -8 -11 -4 -25 4 -15 2 -25 -5 -25 -23 0
-10 -30 27 -59 33 -28 38 -30 49 -15 18 25 78 22 108 -6 35 -33 32 -61 -15
-104 -22 -20 -52 -60 -66 -89 -15 -29 -30 -54 -33 -57 -4 -3 -28 -34 -53 -70
-26 -36 -64 -85 -85 -108 -21 -24 -44 -55 -51 -68 -9 -17 -21 -24 -43 -24 -30
0 -35 -3 -72 -47 -19 -21 -19 -22 24 -43 27 -14 84 -27 155 -37 102 -13 125
-13 219 1 58 9 116 22 128 30 12 8 39 19 59 26 32 10 41 9 65 -7 48 -32 66
-43 115 -67 26 -12 54 -28 62 -35 8 -7 45 -15 83 -18 54 -4 76 -2 102 11 31
16 34 16 74 -2 23 -11 74 -23 112 -27 39 -4 83 -14 99 -22 20 -11 51 -14 107
-11 65 3 81 7 103 27 28 27 27 44 -2 18 -28 -26 -108 -34 -187 -19 -94 18
-136 31 -159 51 -18 15 -19 15 -13 -2 6 -15 3 -17 -16 -12 -12 4 -33 18 -46
33 -33 37 -23 93 40 218 34 68 49 108 45 121 -4 11 1 47 10 79 29 104 29 116
-5 169 -17 27 -31 59 -31 71 0 12 -8 45 -17 74 -36 112 -175 197 -310 188 -56
-4 -69 -8 -89 -31 -13 -15 -21 -33 -19 -40 6 -13 -88 -71 -99 -60 -11 12 -6
18 25 32 16 7 41 31 55 52 13 21 29 39 34 39 6 0 10 6 10 14 0 16 -69 166 -70
151 0 -13 -20 16 -20 30 0 6 5 3 10 -5 8 -13 10 -13 10 1 0 9 -7 22 -15 29
-22 18 -20 22 29 53 48 30 90 34 221 24 57 -5 59 -5 30 8 -44 20 -211 19 -250
-2z m-85 -68 c0 -2 -19 -14 -42 -26 -36 -18 -40 -19 -28 -4 18 22 70 44 70 30z
m31 -46 c4 -8 25 -49 45 -92 l37 -77 -23 -25 c-13 -14 -20 -25 -15 -25 4 0 0
-9 -10 -20 -10 -11 -29 -20 -41 -20 -18 0 -22 -4 -17 -17 14 -41 -37 38 -82
125 -54 106 -55 102 29 146 53 28 65 29 77 5z m181 -222 c9 -14 -27 -29 -58
-25 -18 3 -20 7 -13 27 8 19 14 22 36 16 16 -3 31 -12 35 -18z m143 1 c5 -8
18 -12 28 -10 9 2 20 -4 23 -12 3 -9 10 -13 15 -10 5 3 9 1 9 -5 0 -5 13 -24
29 -42 27 -30 77 -129 64 -129 -3 0 -30 23 -60 50 -58 53 -101 79 -168 100
-52 16 -59 23 -51 55 6 25 9 26 54 21 25 -3 51 -11 57 -18z m-123 -72 c5 3 16
-2 23 -12 8 -11 15 -14 15 -7 0 19 58 5 105 -25 119 -76 190 -177 189 -267 -1
-42 -30 -168 -45 -197 -9 -17 -61 -50 -75 -47 -4 0 -10 -5 -14 -11 -4 -6 -29
-14 -55 -16 -26 -3 -53 -8 -59 -11 -16 -10 -86 -12 -86 -3 0 5 -17 14 -37 21
-39 13 -98 43 -122 62 -18 15 -81 115 -81 128 0 21 -35 109 -43 109 -4 0 -5
-6 -2 -12 4 -7 0 -5 -8 5 -30 36 -33 6 -4 -52 l12 -23 6 23 c6 21 7 21 8 -8 1
-17 18 -64 40 -105 52 -99 112 -148 225 -183 47 -15 86 -32 86 -38 0 -6 18
-32 41 -59 l40 -48 -58 0 c-79 0 -136 27 -256 123 l-35 28 -123 -45 c-68 -24
-150 -48 -182 -51 -61 -7 -146 8 -184 33 -19 12 -21 17 -11 36 18 35 60 87 66
82 3 -3 -1 -12 -8 -21 -16 -19 -7 -32 9 -13 7 7 27 31 46 53 19 22 35 43 35
46 0 3 8 15 18 27 9 11 25 30 35 42 10 12 15 25 12 28 -8 8 -75 -66 -75 -83 0
-7 -9 -20 -20 -30 -31 -28 -24 0 13 48 17 24 54 74 80 111 27 38 57 71 68 73
10 3 19 12 19 19 0 8 6 13 13 12 6 -2 11 5 9 14 -1 10 10 24 27 34 17 10 28
21 25 26 -3 4 2 8 10 8 10 0 13 6 10 15 -4 10 -2 13 8 10 8 -3 27 12 48 39 19
26 51 54 76 65 23 11 45 25 49 31 3 5 21 10 38 10 18 0 39 5 47 10 10 6 16 6
18 0 2 -6 8 -7 14 -4z m-310 -48 c28 -23 46 -44 39 -46 -6 -2 -28 13 -48 32
-21 20 -41 36 -45 36 -5 0 -8 5 -8 10 0 17 10 12 62 -32z m-22 -17 l45 -39
-24 -25 c-13 -14 -29 -23 -37 -20 -10 4 -12 0 -8 -11 8 -22 1 -20 -21 4 -17
18 -17 20 -2 14 27 -10 20 9 -14 37 -31 25 -31 26 -14 52 9 15 20 27 24 27 3
0 26 -18 51 -39z m626 -482 c3 -6 2 -14 -3 -18 -6 -3 -19 -21 -30 -38 -18 -29
-21 -31 -38 -19 -18 13 -18 15 15 48 39 40 46 43 56 27z m-84 -101 c9 -14 15
-34 13 -45 -2 -10 -7 -31 -10 -47 l-6 -29 -32 34 c-92 99 -98 122 -29 117 38
-2 50 -8 64 -30z m-387 -8 c3 -5 1 -10 -4 -10 -6 0 -11 -5 -11 -11 0 -8 4 -8
15 1 12 10 22 5 57 -23 24 -19 70 -50 103 -68 55 -31 65 -33 142 -32 46 1 83
0 83 -3 0 -2 -15 -13 -32 -24 -35 -21 -93 -27 -103 -10 -4 6 -10 8 -15 5 -14
-9 -131 55 -124 67 4 7 2 8 -4 4 -13 -8 -67 17 -99 47 l-22 20 -93 -31 c-51
-17 -118 -32 -148 -33 -30 -2 -61 -7 -67 -12 -17 -12 -164 0 -231 19 -39 11
-52 19 -50 31 7 35 34 38 99 9 58 -27 68 -28 163 -24 88 5 115 11 206 46 113
44 126 47 135 32z"/>
<path d="M770 1386 c0 -18 24 -76 32 -76 4 0 8 -7 8 -16 0 -8 12 -32 26 -52
20 -29 24 -32 19 -12 -4 14 -10 27 -14 30 -10 9 -41 71 -41 84 0 14 -29 55
-30 42z"/>
<path d="M634 808 c-4 -6 -2 -14 5 -16 8 -3 9 -8 1 -17 -8 -9 -5 -14 10 -18
11 -3 20 0 20 5 0 6 9 3 20 -7 15 -14 17 -21 9 -32 -9 -10 -7 -13 9 -13 32 0
35 17 10 51 -29 39 -74 64 -84 47z"/>
<path d="M1211 812 c-6 -2 -11 -8 -11 -13 0 -14 53 -7 57 8 4 11 -20 14 -46 5z"/>
<path d="M616 741 c20 -18 64 -37 64 -27 0 6 -65 46 -76 46 -4 0 1 -8 12 -19z"/>
<path d="M960 1523 c-21 -9 -30 -17 -22 -20 8 -3 19 0 25 6 12 12 103 15 111
3 2 -4 2 -53 -1 -110 l-6 -102 -28 0 c-15 0 -31 -5 -35 -11 -5 -9 6 -10 40 -7
26 3 50 8 53 11 3 3 6 58 7 121 1 107 0 115 -19 120 -36 10 -89 5 -125 -11z"/>
<path d="M1231 1530 c15 -4 44 -19 65 -34 22 -14 64 -33 94 -42 60 -17 87 -35
115 -77 22 -35 141 -126 125 -97 -6 11 -29 32 -51 46 -22 14 -54 45 -71 69
-30 42 -50 54 -149 84 -20 6 -51 23 -69 36 -19 14 -45 25 -59 24 l-26 -1 26
-8z"/>
<path d="M1153 1520 c-38 -16 -26 -25 32 -25 45 0 59 -4 80 -25 l25 -25 -45
-75 c-25 -41 -46 -79 -48 -84 -2 -5 -17 -5 -35 2 -18 6 -32 7 -32 3 0 -7 65
-31 83 -31 4 0 14 14 22 30 9 17 20 28 25 25 6 -3 7 0 4 8 -3 8 9 38 26 67 27
46 30 56 19 76 -21 40 -113 71 -156 54z"/>
<path d="M1148 1388 c-5 -77 4 -93 21 -37 10 33 10 43 0 49 -6 5 -9 15 -6 25
4 9 11 14 16 10 5 -3 12 -1 16 5 4 6 -4 10 -19 10 -23 0 -24 -4 -28 -62z"/>
<path d="M390 1420 c-9 -13 -21 -18 -36 -14 -49 12 -91 -30 -57 -57 12 -11 10
-16 -11 -34 -24 -21 -25 -23 -8 -38 27 -24 56 -25 60 -2 2 16 1 17 -7 6 -8
-12 -12 -13 -25 -1 -15 12 -15 15 -1 30 10 11 13 27 9 48 -5 25 -3 32 10 32 9
0 16 -8 16 -17 0 -14 3 -14 23 4 12 12 33 21 48 20 27 -2 27 -2 9 -27 l-18
-25 80 -54 c60 -41 78 -59 75 -73 -8 -27 6 -22 28 12 12 17 26 28 34 25 7 -3
20 0 27 6 11 9 19 8 34 -6 18 -16 18 -19 3 -30 -13 -10 -14 -13 -2 -20 8 -5
11 -5 7 0 -4 4 0 14 10 21 16 13 15 16 -11 39 -34 30 -42 31 -91 5 l-39 -19
-23 24 c-13 14 -27 25 -31 25 -4 1 -23 14 -41 29 -33 28 -33 30 -17 54 15 24
15 26 -4 32 -12 3 -21 11 -21 16 0 15 -15 10 -30 -11z"/>
<path d="M1339 1423 c-10 -12 -11 -17 -2 -20 7 -2 10 -12 7 -21 -3 -9 2 -5 11
11 8 15 18 27 21 27 20 0 66 -35 79 -60 l15 -30 -92 -60 c-70 -46 -86 -60 -67
-60 25 0 189 111 189 127 0 23 -45 76 -75 89 -45 18 -69 18 -86 -3z"/>
<path d="M1493 1303 c-22 -8 -14 -20 10 -16 28 5 87 -31 94 -58 3 -10 9 -19
13 -19 9 0 28 -46 32 -80 3 -29 -5 -29 -72 -5 -25 9 -76 19 -115 22 -38 3 -76
10 -82 16 -9 6 -13 6 -13 -1 0 -20 28 -30 106 -35 51 -3 99 -13 129 -26 26
-12 57 -21 68 -21 17 0 19 5 13 41 -19 116 -114 211 -183 182z"/>
<path d="M1408 1242 c-32 -20 -58 -41 -58 -46 0 -5 8 -2 18 7 10 10 23 17 28
17 5 0 25 14 44 30 47 39 37 37 -32 -8z"/>
<path d="M1675 1194 c9 -14 23 -42 30 -62 12 -32 14 -34 14 -12 1 23 -42 100
-56 100 -3 0 2 -12 12 -26z"/>
<path d="M1390 1105 c0 -12 35 -75 42 -75 13 0 9 22 -9 42 -15 17 -14 18 30
18 57 0 146 -32 176 -64 28 -30 37 -87 21 -137 -15 -44 -18 -46 -36 -21 -11
14 -11 10 0 -18 29 -72 63 -43 73 65 10 106 -19 144 -139 180 -47 14 -158 21
-158 10z"/>
<path d="M1709 1032 c6 -10 8 -28 5 -39 -3 -12 -1 -24 5 -27 7 -5 11 4 11 23
0 36 -9 61 -21 61 -6 0 -6 -7 0 -18z"/>
<path d="M1410 1001 c0 -5 19 -20 43 -34 56 -33 82 -62 107 -121 25 -55 22
-78 -19 -129 l-29 -37 -14 23 c-23 35 -29 59 -19 71 12 14 3 58 -10 50 -13 -8
-11 -102 2 -110 6 -3 17 -22 25 -40 8 -19 18 -34 23 -34 9 0 48 56 75 108 22
42 14 87 -27 148 -39 59 -157 138 -157 105z"/>
<path d="M1557 648 c-67 -92 -77 -108 -54 -89 9 7 27 30 39 50 12 20 35 53 51
74 16 20 26 37 23 37 -3 0 -30 -33 -59 -72z"/>
<path d="M1450 672 c0 -18 -9 -50 -20 -72 -11 -22 -17 -46 -13 -56 5 -14 3
-16 -13 -10 -15 5 -16 4 -7 -5 14 -14 -14 -82 -31 -72 -6 3 -5 0 2 -8 18 -20
15 -31 -8 -24 -17 5 -20 2 -20 -25 0 -35 15 -70 30 -70 6 0 10 14 10 31 0 17
22 77 49 132 60 123 65 154 36 193 -14 18 -14 17 -15 -14z"/>
<path d="M1481 518 c-1 -22 18 -33 52 -29 17 1 37 -5 48 -15 18 -16 19 -16 19
0 0 19 -38 36 -80 36 -16 0 -31 6 -33 13 -3 7 -6 6 -6 -5z"/>
<path d="M1460 482 c0 -19 25 -29 60 -25 31 4 40 1 54 -18 9 -13 16 -33 16
-46 0 -12 5 -25 10 -28 15 -9 12 -41 -4 -54 -17 -14 -107 -5 -132 13 -8 7 -16
27 -17 46 -1 18 -7 35 -14 37 -19 7 -4 -69 18 -89 10 -9 47 -19 81 -23 54 -6
63 -5 75 11 9 12 12 30 8 49 -4 17 -7 44 -8 62 0 18 -4 30 -8 28 -4 -3 -12 2
-19 10 -8 9 -30 15 -56 15 -24 0 -44 5 -44 10 0 6 -4 10 -10 10 -5 0 -10 -4
-10 -8z"/>
<path d="M1651 386 c-14 -17 -7 -36 24 -59 l25 -18 -10 26 c-8 20 -6 29 10 45
20 20 20 20 -9 20 -16 0 -34 -6 -40 -14z"/>
<path d="M1714 343 c-11 -35 -21 -48 -43 -51 -23 -4 -29 -22 -7 -22 23 0 70
20 78 33 4 7 8 22 8 35 0 26 -28 30 -36 5z"/>
</g>
</svg>
